<?xml version="1.0" standalone="no"?>
<!DOCTYPE svg PUBLIC "-//W3C//DTD SVG 20010904//EN"
 "http://www.w3.org/TR/2001/REC-SVG-20010904/DTD/svg10.dtd">
<svg version="1.0" xmlns="http://www.w3.org/2000/svg"
 width="203.000000pt" height="248.000000pt" viewBox="0 0 203.000000 248.000000"
 preserveAspectRatio="xMidYMid meet">

<g transform="translate(0.000000,248.000000) scale(0.100000,-0.100000)"
fill="#000000" stroke="none">
<path d="M885 2419 c-241 -119 -406 -173 -670 -220 -94 -16 -181 -32 -194 -35
l-24 -5 7 -167 c19 -482 35 -613 101 -840 85 -296 226 -557 419 -773 119 -134
319 -295 443 -358 40 -20 45 -20 80 -6 64 27 165 95 258 176 356 305 571 673
664 1139 28 140 38 246 52 559 9 207 9 265 -1 271 -7 4 -47 13 -89 20 -315 49
-484 99 -735 216 -89 42 -168 77 -176 79 -8 2 -69 -23 -135 -56z m252 -8 c249
-123 416 -178 693 -225 85 -15 163 -29 173 -32 16 -5 17 -17 12 -137 -22 -485
-29 -567 -71 -747 -65 -279 -166 -504 -326 -730 -87 -121 -173 -214 -301 -324
-115 -98 -171 -137 -257 -181 -48 -24 -51 -25 -82 -9 -126 65 -343 243 -459
377 -91 105 -205 276 -272 408 -100 197 -188 508 -207 734 -13 168 -32 596
-26 602 2 3 89 20 193 39 283 50 445 103 683 223 63 32 118 59 122 60 4 0 60
-25 125 -58z"/>
<path d="M961 2320 c-95 -52 -266 -129 -357 -159 -77 -26 -155 -44 -413 -93
l-53 -10 6 -151 c19 -443 32 -546 91 -761 61 -218 144 -395 271 -572 99 -139
267 -303 399 -389 79 -52 93 -59 127 -56 39 3 204 128 321 244 246 243 404
541 481 904 32 150 44 282 52 564 7 208 6 217 -12 222 -10 3 -73 15 -139 27
-237 42 -360 82 -575 188 -74 37 -137 68 -140 69 -3 2 -29 -11 -59 -27z"/>
</g>
</svg>
